<?xml version="1.0" encoding="UTF-8"?>
<!DOCTYPE svg  PUBLIC '-//W3C//DTD SVG 1.1//EN'  'http://www.w3.org/Graphics/SVG/1.1/DTD/svg11.dtd' [
	<!ENTITY ns_extend "http://ns.adobe.com/Extensibility/1.0/">
	<!ENTITY ns_ai "http://ns.adobe.com/AdobeIllustrator/10.0/">
	<!ENTITY ns_graphs "http://ns.adobe.com/Graphs/1.0/">
	<!ENTITY ns_vars "http://ns.adobe.com/Variables/1.0/">
	<!ENTITY ns_imrep "http://ns.adobe.com/ImageReplacement/1.0/">
	<!ENTITY ns_sfw "http://ns.adobe.com/SaveForWeb/1.0/">
	<!ENTITY ns_custom "http://ns.adobe.com/GenericCustomNamespace/1.0/">
	<!ENTITY ns_adobe_xpath "http://ns.adobe.com/XPath/1.0/">
]>
<svg width="385.93px" height="311.85px" enable-background="new 0 0 385.926 311.852" version="1.1" viewBox="0 0 385.926 311.852" xml:space="preserve" xmlns="http://www.w3.org/2000/svg">
	<path d="m189.95 143.37c1.77-0.394 4.193-0.947 6.537-1.5 1.033-0.244 1.761 0.714 2.574 2.122 0.812 1.409 1.279 2.518 0.551 3.29-1.65 1.754-3.342 3.576-4.566 4.912-0.909 0.99-0.678 1.842 0.357 3.191 1.036 1.35 1.801 1.791 2.994 1.17 1.607-0.838 3.805-1.999 5.926-3.141 0.935-0.502 1.885 0.234 3.035 1.385s1.887 2.1 1.385 3.035c-1.142 2.121-2.304 4.318-3.141 5.926-0.621 1.193-0.178 1.955 1.172 2.99 1.35 1.036 2.203 1.264 3.193 0.355 1.336-1.225 3.158-2.916 4.912-4.567 0.773-0.728 1.881-0.262 3.29 0.552s2.366 1.541 2.122 2.573c-0.553 2.345-1.106 4.769-1.499 6.538-0.292 1.312 0.334 1.934 1.906 2.584 1.571 0.652 2.455 0.651 3.177-0.482 0.974-1.529 2.295-3.635 3.562-5.684 0.559-0.902 1.75-0.74 3.32-0.318 1.571 0.42 2.685 0.875 2.717 1.936 0.072 2.408 0.164 4.893 0.243 6.703 0.058 1.344 0.823 1.781 2.511 2.004 1.688 0.222 2.539-8e-3 2.943-1.289 0.545-1.729 1.277-4.104 1.971-6.412 0.305-1.016 1.498-1.168 3.125-1.168 1.626 0 2.818 0.152 3.125 1.168 0.693 2.308 1.425 4.684 1.969 6.412 0.404 1.281 1.257 1.508 2.943 1.285 1.688-0.223 2.452-0.664 2.51-2.008 0.078-1.811 0.172-4.294 0.244-6.702 0.031-1.062 1.145-1.516 2.717-1.937 1.57-0.422 2.762-0.584 3.32 0.318 1.267 2.05 2.588 4.154 3.562 5.684 0.721 1.135 1.604 1.131 3.176 0.48 1.571-0.651 2.195-1.276 1.904-2.589-0.393-1.77-0.947-4.192-1.5-6.538-0.244-1.032 0.714-1.76 2.123-2.572 1.408-0.814 2.518-1.279 3.289-0.553 1.755 1.652 3.576 3.344 4.912 4.568 0.991 0.908 1.842 0.678 3.191-0.358 1.351-1.036 1.791-1.801 1.17-2.993-0.837-1.607-1.999-3.805-3.141-5.927-0.502-0.935 0.234-1.886 1.385-3.035 1.15-1.15 2.101-1.887 3.035-1.384 2.122 1.141 4.319 2.303 5.926 3.141 1.193 0.621 1.955 0.178 2.99-1.173 1.037-1.35 1.265-2.203 0.355-3.194-1.225-1.336-2.916-3.157-4.566-4.911-0.729-0.772-0.263-1.882 0.551-3.29 0.812-1.408 1.541-2.366 2.574-2.123 2.344 0.554 4.768 1.107 6.537 1.5 1.312 0.291 1.934-0.334 2.584-1.906 0.652-1.572 0.651-2.455-0.482-3.177-1.529-0.973-3.635-2.295-5.684-3.562-0.902-0.558-0.74-1.75-0.318-3.321 0.42-1.571 0.875-2.684 1.936-2.716 2.408-0.072 4.893-0.165 6.703-0.243 1.344-0.058 1.781-0.823 2.004-2.51s-7e-3 -2.54-1.289-2.944c-1.729-0.544-4.104-1.276-6.412-1.97-1.016-0.306-1.167-1.499-1.167-3.125 0-1.627 0.151-2.82 1.167-3.125 2.308-0.693 4.684-1.426 6.412-1.97 1.282-0.404 1.508-1.256 1.285-2.943-0.222-1.687-0.664-2.451-2.008-2.51-1.811-0.078-4.294-0.171-6.702-0.243-1.061-0.032-1.516-1.145-1.937-2.716s-0.584-2.763 0.318-3.321c2.05-1.267 4.154-2.589 5.684-3.562 1.135-0.722 1.131-1.604 0.48-3.176s-1.276-2.196-2.589-1.904c-1.77 0.393-4.192 0.946-6.538 1.5-1.032 0.244-1.76-0.714-2.572-2.123-0.814-1.409-1.279-2.517-0.553-3.29 1.652-1.754 3.344-3.576 4.568-4.912 0.908-0.991 0.678-1.842-0.358-3.192s-1.801-1.791-2.993-1.17c-1.607 0.837-3.805 2-5.927 3.141-0.935 0.503-1.885-0.234-3.035-1.384s-1.887-2.101-1.384-3.035c1.141-2.122 2.303-4.319 3.141-5.926 0.621-1.192 0.178-1.955-1.172-2.991-1.351-1.036-2.203-1.264-3.195-0.355-1.336 1.225-3.156 2.916-4.911 4.567-0.772 0.728-1.882 0.262-3.29-0.551s-2.366-1.541-2.123-2.574c0.554-2.345 1.107-4.768 1.5-6.538 0.291-1.312-0.334-1.934-1.906-2.585s-2.455-0.65-3.177 0.483c-0.974 1.529-2.296 3.634-3.562 5.683-0.558 0.903-1.749 0.74-3.321 0.319-1.57-0.421-2.684-0.875-2.716-1.937-0.072-2.408-0.165-4.892-0.243-6.703-0.059-1.343-0.823-1.781-2.51-2.003-1.688-0.222-2.541 7e-3 -2.944 1.29-0.544 1.729-1.276 4.104-1.97 6.411-0.306 1.017-1.498 1.167-3.125 1.167s-2.82-0.151-3.125-1.167c-0.693-2.308-1.426-4.683-1.971-6.411-0.403-1.283-1.256-1.508-2.943-1.286s-2.451 0.664-2.51 2.007c-0.078 1.811-0.17 4.295-0.242 6.703-0.033 1.061-1.146 1.515-2.717 1.937-1.571 0.421-2.763 0.583-3.32-0.319-1.268-2.049-2.59-4.154-3.562-5.683-0.723-1.134-1.604-1.131-3.176-0.48s-2.196 1.276-1.904 2.589c0.393 1.769 0.945 4.192 1.499 6.537 0.243 1.033-0.714 1.76-2.122 2.574-1.409 0.813-2.518 1.279-3.291 0.551-1.754-1.651-3.575-3.343-4.911-4.567-0.991-0.909-1.842-0.678-3.192 0.358s-1.791 1.801-1.169 2.994c0.837 1.607 1.999 3.805 3.14 5.926 0.504 0.935-0.233 1.885-1.383 3.035s-2.102 1.887-3.036 1.384c-2.122-1.141-4.319-2.303-5.927-3.141-1.191-0.621-1.954-0.178-2.99 1.172-1.035 1.35-1.264 2.203-0.355 3.194 1.226 1.335 2.916 3.157 4.568 4.912 0.728 0.772 0.262 1.881-0.552 3.29s-1.54 2.366-2.573 2.123c-2.346-0.553-4.768-1.107-6.537-1.5-1.312-0.291-1.935 0.334-2.586 1.906-0.65 1.572-0.65 2.455 0.484 3.177 1.528 0.973 3.633 2.295 5.683 3.562 0.903 0.558 0.739 1.75 0.319 3.321-0.422 1.571-0.876 2.684-1.938 2.716-2.408 0.073-4.892 0.165-6.702 0.243-1.343 0.059-1.782 0.823-2.004 2.51-0.222 1.688 7e-3 2.54 1.29 2.944 1.729 0.544 4.104 1.277 6.411 1.97 1.017 0.305 1.167 1.498 1.167 3.125s-0.15 2.82-1.167 3.125c-2.308 0.693-4.683 1.425-6.411 1.97-1.283 0.404-1.508 1.256-1.286 2.943s0.664 2.452 2.007 2.51c1.811 0.079 4.295 0.171 6.703 0.243 1.061 0.032 1.516 1.146 1.937 2.716 0.421 1.571 0.584 2.763-0.319 3.321-2.049 1.267-4.154 2.589-5.683 3.562-1.134 0.722-1.131 1.604-0.479 3.176 0.67 1.56 1.29 2.18 2.6 1.89z"/>
	<circle cx="244.26" cy="117.88" r="44.729" fill="#fff"/>
	<path d="m200.96 117.88c0-23.914 19.387-43.3 43.3-43.3 23.914 0 43.301 19.387 43.301 43.3s-19.387 43.3-43.301 43.3c-23.92 0-43.3-19.38-43.3-43.3z"/>
	<circle cx="244.26" cy="117.88" r="11.01" fill="#fff"/>
<path d="m210.43 174.64c0.088 1.631-0.139 2.492-1.363 2.82-1.986 0.535-3.887 1.145-6.357 1.807-1.463 0.393-2 0.836-2.242 2.734-0.244 1.898 0.166 2.463 1.482 3.211 2.225 1.264 3.91 2.332 5.697 3.348 1.102 0.627 1.1 1.547 0.605 3.072-0.496 1.527-1.082 2.248-2.34 2.084-2.039-0.268-4.027-0.432-6.564-0.764-1.5-0.197-2.166 6e-3 -3.117 1.668-0.951 1.66-0.791 2.338 0.141 3.533 1.572 2.018 2.719 3.65 3.982 5.273 0.779 1 0.455 1.877-0.617 3.068-1.09 1.217-1.859 1.664-2.957 1.031-1.783-1.027-3.557-1.939-5.773-3.217-1.311-0.758-2.004-0.824-3.52 0.348-1.514 1.17-1.625 1.857-1.221 3.318 0.68 2.467 1.115 4.412 1.66 6.396 0.338 1.221-0.326 1.85-1.744 2.6-1.303 0.688-2.355 0.824-3.127-0.182-1.254-1.631-2.543-3.152-4.102-5.182-0.922-1.201-1.537-1.527-3.385-1.025s-2.213 1.096-2.398 2.598c-0.316 2.539-0.658 4.506-0.912 6.547-0.158 1.258-1.006 1.646-2.607 1.734-1.631 0.086-2.492-0.141-2.82-1.363-0.533-1.986-1.145-3.887-1.807-6.357-0.393-1.463-0.836-2-2.735-2.242-1.898-0.244-2.462 0.164-3.21 1.482-1.263 2.225-2.331 3.908-3.348 5.697-0.625 1.102-1.557 1.131-3.07 0.605-1.531-0.533-2.25-1.084-2.085-2.34 0.268-2.039 0.431-4.027 0.765-6.564 0.197-1.502-8e-3 -2.168-1.668-3.117-1.662-0.951-2.34-0.791-3.534 0.141-2.019 1.572-3.65 2.719-5.273 3.982-1 0.779-1.876 0.455-3.069-0.617-1.215-1.092-1.664-1.861-1.031-2.959 1.027-1.781 1.939-3.557 3.219-5.771 0.756-1.311 0.822-2.006-0.348-3.52-1.172-1.514-1.859-1.625-3.318-1.223-2.467 0.682-4.414 1.117-6.396 1.662-1.223 0.336-1.852-0.326-2.6-1.744-0.689-1.303-0.825-2.355 0.18-3.127 1.631-1.254 3.152-2.545 5.182-4.102 1.201-0.922 1.528-1.537 1.025-3.385-0.502-1.848-1.096-2.213-2.598-2.398-2.539-0.316-4.504-0.658-6.545-0.914-1.258-0.156-1.648-1.004-1.734-2.605-0.088-1.631 0.139-2.492 1.363-2.82 1.986-0.533 3.885-1.145 6.356-1.807 1.462-0.393 2-0.836 2.243-2.734 0.242-1.899-0.166-2.463-1.482-3.211-2.225-1.263-3.91-2.332-5.698-3.348-1.103-0.626-1.099-1.546-0.604-3.071 0.495-1.528 1.082-2.249 2.338-2.085 2.04 0.268 4.028 0.432 6.564 0.765 1.502 0.197 2.168-7e-3 3.119-1.668s0.789-2.339-0.141-3.534c-1.572-2.018-2.721-3.65-3.983-5.273-0.778-1-0.454-1.875 0.616-3.068 1.092-1.216 1.861-1.664 2.959-1.031 1.781 1.027 3.557 1.939 5.772 3.218 1.312 0.757 2.005 0.823 3.52-0.348s1.624-1.858 1.222-3.318c-0.68-2.466-1.115-4.413-1.662-6.396-0.336-1.222 0.326-1.851 1.744-2.599 1.305-0.689 2.355-0.826 3.128 0.18 1.253 1.631 2.544 3.152 4.102 5.182 0.922 1.201 1.537 1.527 3.385 1.025 1.847-0.502 2.212-1.096 2.399-2.598 0.314-2.539 0.658-4.505 0.912-6.546 0.156-1.257 1.005-1.647 2.606-1.733 1.631-0.088 2.492 0.139 2.822 1.362 0.533 1.986 1.143 3.886 1.805 6.356 0.393 1.463 0.836 2 2.734 2.243 1.9 0.243 2.465-0.165 3.211-1.481 1.264-2.226 2.332-3.91 3.348-5.699 0.627-1.102 1.557-1.131 3.072-0.604 1.529 0.531 2.248 1.082 2.084 2.338-0.268 2.039-0.43 4.027-0.764 6.564-0.197 1.502 6e-3 2.168 1.668 3.119 1.662 0.95 2.34 0.789 3.533-0.142 2.02-1.571 3.65-2.72 5.273-3.983 1-0.777 1.877-0.454 3.07 0.617 1.215 1.092 1.664 1.861 1.031 2.959-1.029 1.781-1.939 3.557-3.219 5.771-0.758 1.312-0.824 2.006 0.348 3.52 1.17 1.515 1.859 1.625 3.318 1.223 2.467-0.68 4.414-1.116 6.396-1.662 1.221-0.336 1.85 0.326 2.6 1.744 0.688 1.304 0.824 2.355-0.18 3.127-1.633 1.254-3.152 2.545-5.184 4.102-1.201 0.922-1.527 1.537-1.025 3.385 0.504 1.848 1.096 2.213 2.6 2.399 2.539 0.315 4.504 0.658 6.545 0.914 1.25 0.19 1.64 1.03 1.73 2.63z"/>
<circle cx="166.63" cy="177.67" r="11.01" fill="#fff"/>
</svg>
